<?xml version="1.0" encoding="UTF-8" standalone="no"?>
<!-- Created with Inkscape (http://www.inkscape.org/) -->

<svg
   width="48"
   height="48"
   viewBox="0 0 12.7 12.7"
   version="1.1"
   id="svg1"
   inkscape:version="1.3 (0e150ed6c4, 2023-07-21)"
   sodipodi:docname="gc_icon.svg"
   inkscape:export-filename="gc_icon.png"
   inkscape:export-xdpi="96"
   inkscape:export-ydpi="96"
   xmlns:inkscape="http://www.inkscape.org/namespaces/inkscape"
   xmlns:sodipodi="http://sodipodi.sourceforge.net/DTD/sodipodi-0.dtd"
   xmlns="http://www.w3.org/2000/svg"
   xmlns:svg="http://www.w3.org/2000/svg">
  <sodipodi:namedview
     id="namedview1"
     pagecolor="#505050"
     bordercolor="#eeeeee"
     borderopacity="1"
     inkscape:showpageshadow="0"
     inkscape:pageopacity="0"
     inkscape:pagecheckerboard="0"
     inkscape:deskcolor="#505050"
     inkscape:document-units="px"
     inkscape:zoom="5.7941077"
     inkscape:cx="8.1979836"
     inkscape:cy="22.522881"
     inkscape:window-width="1920"
     inkscape:window-height="1009"
     inkscape:window-x="-8"
     inkscape:window-y="-8"
     inkscape:window-maximized="1"
     inkscape:current-layer="layer1" />
  <defs
     id="defs1" />
  <g
     inkscape:label="Layer 1"
     inkscape:groupmode="layer"
     id="layer1">
    <path
       id="path7-4-9-6"
       style="fill:#1cd78f;fill-opacity:1;stroke:none;stroke-width:6.53499;stroke-dasharray:none;stroke-opacity:1"
       d="M 4.1040674,1.806774 C 3.6229642,2.2500728 3.2833749,2.8254891 3.1278477,3.4609334 3.0628368,3.7175205 3.0287113,3.9809585 3.0261961,4.2456427 3.0261996,6.0813275 4.5143148,7.5694395 6.3499966,7.5694429 6.7856536,7.5691246 7.2170133,7.48333 7.619542,7.3166944 V 7.5694429 C 7.6195187,8.2705754 7.0511291,8.8389419 6.3499966,8.8389351 5.648864,8.8389419 5.0804743,8.2705754 5.0804512,7.5694429 H 3.0261956 c 3.5e-6,1.8356818 1.4881187,3.3237941 3.3238004,3.3237971 1.8356818,-3e-6 3.3237975,-1.4881153 3.3238003,-3.3237971 V 4.5661202 4.2456427 3.8553751 C 9.6737834,3.6387998 9.4991438,3.462748 9.2825788,3.4609865 v 0 H 7.0331101 C 6.8775363,2.8255257 6.5378905,2.2501058 6.0567271,1.8068273 5.5756038,2.2501192 5.2359944,2.8255388 5.0804506,3.4609865 4.9248769,2.8255257 4.5852309,2.2501058 4.1040674,1.8068273 Z M 4.3565368,3.9860706 C 4.6045622,3.9860604 4.8056287,4.1871273 4.8056189,4.4351526 4.8055957,4.6831543 4.6045388,4.8841846 4.3565368,4.8841744 4.108558,4.8841513 3.9075413,4.683131 3.9075181,4.4351526 3.907508,4.1871536 4.1085347,3.9860969 4.3565368,3.9860706 Z m 1.4478208,0 c 0.2480253,-1.02e-5 0.449092,0.2010567 0.449082,0.449082 -2.31e-5,0.2480017 -0.20108,0.449032 -0.449082,0.4490218 C 5.5563788,4.8841513 5.3553587,4.683131 5.3553355,4.4351526 5.3553255,4.1871505 5.5563556,3.9860937 5.8043576,3.9860706 Z"
       sodipodi:nodetypes="sccccssccsscccccccccscccccscscs" />
  </g>
</svg>
